<svg xmlns="http://www.w3.org/2000/svg" version="1.1" xmlns:xlink="http://www.w3.org/1999/xlink" width="2000" height="1500" viewBox="0 0 2000 1500"><rect width="2000" height="1500" x="0" y="0" id="background" stroke="transparent" fill="#ffffff"></rect><svg xml:space="preserve" width="1500" height="1125" data-version="2" data-id="lg_De2YL0ktHGSiJxkbVv" viewBox="0 0 588 554" x="250" y="187.5"><rect width="100%" height="100%" fill="transparent"></rect><rect width="588" height="553.7" x="-294" y="-276.85" fill="none" rx="0" ry="0" transform="translate(294.5 277.35)"></rect><path d="M138.15 430.78H82.88q-2.16 0-2.16-2.39V148.93H17.08q-2.39 0-2.39-2.39l.48-54.79q0-1.91 1.91-1.91h186.14q2.64 0 2.64 1.91v54.79q0 2.39-1.92 2.39h-64.36l.48 279.46q0 2.39-1.91 2.39"></path><path d="m288.38 430.3-87.81.48q-2.39 0-2.39-2.39l.96-336.64q0-1.91 1.91-1.91l91.64-.48q27.27-.72 49.29 12.44 22.25 13.16 35.53 35.53 13.27 22.37 13.27 49.41v140.68q0 28.23-13.63 51.68-13.88 23.21-36.85 36.96-22.97 13.76-51.92 14.24m4.31-282.32-34.22.47-.47 222.04h30.38q18.19 0 30.63-12.69 12.44-12.68 12.44-30.38V186.26q0-15.55-11.49-27.16-11.48-11.6-27.27-11.12m265.56 282.8H399.86q-1.91 0-1.91-2.39l.47-336.16q0-2.39 2.4-2.39h54.55q2.39 0 2.39 2.39l-.48 278.26h100.97q2.39 0 2.39 2.39v55.51q0 2.39-2.39 2.39"></path></svg></svg>